#!OML:ASF F:\VICON\USERDATA\INSTALL\rory3\rory3.ASF
:FULLY-SPECIFIED
:DEGREES
90
root 0.49734728514519344 17.80143318674415 36.666110674587856 -3.290777138215054 -5.0121805332614695 -2.216524164112212
lfemur -15.15243919710877 -2.1687000718507843 -20.34493314913767
ltibia 27.284644929255602
lfoot -2.6315609913521447 -2.7903658072604207
ltoes -5.413912930497499
rfemur -5.8409391611583015 3.2372301057776918 25.20588658749005
rtibia 51.63981056083857
rfoot -1.2672333844943218 -5.496797960153046
rtoes 5.022938387782026
lowerback 9.660699789603395 2.0341284546964506 1.3682270505373875
upperback 0.1849657400881378 3.1976683733679403 1.165594070505866
thorax -4.801960714506784 1.7990130155267263 -2.045410279664661
lowerneck -16.429801805496492 -2.84457722497049 -2.352186311022148
upperneck 20.859020417242018 -3.573421108797244 1.3666911170597862
head 9.380768232686954 -1.7816158530142021 0.32944758607906954
lclavicle -1.9576443916121986e-15 8.91378641119817e-16
lhumerus -32.8314847527017 1.9672618420276673 82.21043914531745
lradius 22.929664271938623
lwrist 3.0865201273280536
lhand -26.890441790344166 23.57093992092507
lfingers 7.12502
lthumb -0.32580868019289777 53.6450413178118
rclavicle -1.951223122976245e-15 9.086310013739604e-16
rhumerus -27.773422261863868 -16.153788222667835 -79.8956963010341
rradius 28.05816457319992
rwrist 4.550825190659851
rhand -17.23302256466663 22.74336797289832
rfingers 7.12502
rthumb 9.008837959238074 -6.98061845267417
91
root 0.5359278583149811 17.840481605995762 37.17997912537286 -3.5639224479852754 -4.949491469369978 -1.2878910735400613
lfemur -12.435932196673892 -2.323692989851959 -22.10030513449701
ltibia 27.72442730080683
lfoot -3.379567447272043 -2.2488728558796787
ltoes -4.982787458139002
rfemur -9.453681102436683 2.604539935184456 24.044975107894242
rtibia 59.99690895907321
rfoot -0.6513431202383444 -5.915537802013493
rtoes 5.913286773141733
lowerback 9.794960495262425 1.7179753723166513 0.5373835251700482
upperback 0.24633683178229107 2.9794423462531068 0.9824022223542045
thorax -4.8700577159447915 1.7219111868550396 -1.7893197401702117
lowerneck -16.376442069353185 -2.869831324942946 -2.3563343156816945
upperneck 20.877288186255722 -3.5779916921505626 1.3707581693309279
head 9.387673996438885 -1.7829692446060077 0.3395930873291637
lclavicle -1.957644392148093e-15 8.913786416070536e-16
lhumerus -32.23379009143631 1.162113223624785 82.46749908249693
lradius 22.344204707213464
lwrist 3.0846519934645147
lhand -26.889162348424794 23.52889148792437
lfingers 7.12502
lthumb -0.3174736938494582 53.591993734363726
rclavicle -1.9512231208573794e-15 9.086310033116355e-16
rhumerus -28.090244846819807 -16.518906170471716 -79.76575370681577
rradius 27.514358208006797
rwrist 5.133909433698111
rhand -17.233764445896092 22.74800404501123
rfingers 7.12502
rthumb 9.001564099893388 -6.9697693762709765
92
root 0.5595857844416801 17.866771860314543 37.68060953910023 -3.7468828862982786 -4.576376584073559 -0.621866246814387
lfemur -9.649423951791146 -2.4131247023592257 -23.122139948833528
ltibia 27.482044438151476
lfoot -4.264139676681822 -1.4146705184752704
ltoes -4.716529363846062
rfemur -13.048579259483986 1.9650986872152787 23.12465130440751
rtibia 66.51557464189398
rfoot -0.9506853995747759 -6.5239202240417
rtoes 5.649307740095747
lowerback 9.90172966598578 1.340796910029558 -0.21272728971913035
upperback 0.3267286824060629 2.6960089184050293 0.866050574024444
thorax -4.944435568764797 1.6162102339881064 -1.457731320052436
lowerneck -16.337964975352257 -2.893833766861467 -2.357198263583527
upperneck 20.890226375113148 -3.590014543888629 1.3483278282106856
head 9.395563523236932 -1.7799580733164364 0.34879758669710315
lclavicle -1.957644388589269e-15 8.91378641964601e-16
lhumerus -31.541077959102463 0.583540106622087 82.66988708621312
lradius 21.814634840332875
lwrist 3.170166043871472
lhand -26.887084823308967 23.50144989819354
lfingers 7.12502
lthumb -0.31235027418067457 53.54671387607421
rclavicle -1.9512231211783444e-15 9.086310029722062e-16
rhumerus -28.349852298046454 -16.695723853302738 -79.55105074724982
rradius 26.941191691247923
rwrist 5.497109606433529
rhand -17.2408887166839 22.74984371617467
rfingers 7.12502
rthumb 8.990252100455672 -6.951031919306458
93
root 0.5709905950796872 17.8758189113343 38.149554364385814 -3.8237642696317287 -3.9676025412315923 -0.12594427667103236
lfemur -7.269075734613812 -2.601136435529052 -23.91231624251446
ltibia 27.049822364258493
lfoot -4.638326121315583 -1.4412554372422397
ltoes -4.8105427486123675
rfemur -15.967685192206725 1.5994714546546054 22.694955539853076
rtibia 70.30496780037645
rfoot -1.3967357316605753 -6.990071583364853
rtoes 4.8010762140901555
lowerback 9.974320760268538 0.9331308633249558 -0.9076613428995517
upperback 0.4061820914843351 2.319551365365218 0.8156303017044547
thorax -5.014087505082664 1.4801868193427241 -1.0550766381667724
lowerneck -16.33277163072115 -2.9149512137218125 -2.3652054914909235
upperneck 20.892679351151145 -3.603520232664381 1.3213174866711328
head 9.397509019920843 -1.775307791703094 0.3541833979226098
lclavicle -1.9576443915285115e-15 8.91378637606023e-16
lhumerus -30.932508393993658 -2.9330246559600148e-05 82.83514032426018
lradius 21.37372880173219
lwrist 3.3745207324135764
lhand -26.88560517826879 23.48560035613048
lfingers 7.12502
lthumb -0.3111458319299756 53.50782511360096
rclavicle -1.9512231216741632e-15 9.08631002486726e-16
rhumerus -28.50523588626341 -16.63482356153645 -79.27294784693086
rradius 26.420739477014315
rwrist 5.54049113569219
rhand -17.249292030508048 22.7516170529966
rfingers 7.12502
rthumb 8.972035811689365 -6.930840796438807
94
root 0.5714799615145523 17.86790992789354 38.560741580730856 -3.7763811265622302 -3.270730418681442 0.3090145598535008
lfemur -5.413738298289671 -2.868810459617379 -24.597348334880586
ltibia 26.604651265707375
lfoot -4.742935521701067 -1.4362463269034116
ltoes -4.819503715922878
rfemur -18.59031735170343 1.5130414034600435 22.291495720438903
rtibia 71.25461430043039
rfoot -2.2043699712095073 -7.474624320207202
rtoes 3.713275981761904
lowerback 10.008102389099172 0.5341526859390922 -1.5615357566646566
upperback 0.4713088429217389 1.8636807209914732 0.8192427813006913
thorax -5.072967782514219 1.3020441882140306 -0.6072925148924623
lowerneck -16.355060950871554 -2.9265728485631426 -2.3736193906933556
upperneck 20.8710530110577 -3.6251269100084365 1.2882953335181209
head 9.39747974507049 -1.7690176933335526 0.35647964449311786
lclavicle -1.9576443879904088e-15 8.91378642504193e-16
lhumerus -30.37210603826255 -0.6259300702598132 83.01758531757542
lradius 21.053605002361675
lwrist 3.681265470891865
lhand -26.886685880776355 23.47792031611137
lfingers 7.12502
lthumb -0.3133205908912752 53.47710453482305
rclavicle -1.9512231225952467e-15 9.086310016127594e-16
rhumerus -28.618768232511123 -16.545417068350407 -78.98918770381765
rradius 25.9990416834604
rwrist 5.399297934360097
rhand -17.256434484164295 22.753052473595673
rfingers 7.12502
rthumb 8.95463108430132 -6.905197278681825
